<svg width="1280" height="420" viewBox="0 0 1280 420" fill="none" xmlns="http://www.w3.org/2000/svg">
  <defs>
    <linearGradient id="bg" x1="0" y1="0" x2="1280" y2="420" gradientUnits="userSpaceOnUse">
      <stop stop-color="#090A0F"/>
      <stop offset="0.52" stop-color="#111827"/>
      <stop offset="1" stop-color="#1E1B4B"/>
    </linearGradient>
    <linearGradient id="accent" x1="168" y1="96" x2="1120" y2="330" gradientUnits="userSpaceOnUse">
      <stop stop-color="#22D3EE"/>
      <stop offset="0.5" stop-color="#8B5CF6"/>
      <stop offset="1" stop-color="#F59E0B"/>
    </linearGradient>
    <filter id="softShadow" x="-20%" y="-20%" width="140%" height="140%" color-interpolation-filters="sRGB">
      <feDropShadow dx="0" dy="22" stdDeviation="28" flood-color="#000000" flood-opacity="0.36"/>
    </filter>
  </defs>

  <rect width="1280" height="420" rx="0" fill="url(#bg)"/>
  <path d="M0 348C144 288 278 304 420 330C568 357 690 361 840 298C978 240 1110 216 1280 258V420H0V348Z" fill="#0F172A" opacity="0.72"/>
  <path d="M98 104H382" stroke="#334155" stroke-width="1"/>
  <path d="M898 316H1182" stroke="#334155" stroke-width="1"/>
  <circle cx="1018" cy="110" r="116" fill="#312E81" opacity="0.22"/>
  <circle cx="214" cy="306" r="132" fill="#155E75" opacity="0.14"/>

  <g filter="url(#softShadow)">
    <rect x="760" y="92" width="340" height="226" rx="18" fill="#0B1020" stroke="#243047"/>
    <rect x="790" y="124" width="138" height="12" rx="6" fill="#334155"/>
    <rect x="790" y="154" width="250" height="10" rx="5" fill="#1E293B"/>
    <rect x="790" y="177" width="216" height="10" rx="5" fill="#1E293B"/>
    <rect x="790" y="215" width="258" height="54" rx="10" fill="#111827" stroke="#334155"/>
    <rect x="812" y="236" width="64" height="10" rx="5" fill="#22D3EE"/>
    <rect x="892" y="236" width="118" height="10" rx="5" fill="#8B5CF6"/>
    <rect x="790" y="292" width="184" height="10" rx="5" fill="#F59E0B"/>
  </g>

  <g>
    <rect x="92" y="88" width="104" height="32" rx="16" fill="#111827" stroke="#334155"/>
    <circle cx="114" cy="104" r="6" fill="#22C55E"/>
    <text x="132" y="109" fill="#CBD5E1" font-family="Inter, Segoe UI, Arial, sans-serif" font-size="13" font-weight="700">PRIVATE CORE</text>

    <text x="92" y="182" fill="#F8FAFC" font-family="Inter, Segoe UI, Arial, sans-serif" font-size="64" font-weight="800" letter-spacing="-1">
      Evidence RAG
    </text>
    <text x="94" y="226" fill="#CBD5E1" font-family="Inter, Segoe UI, Arial, sans-serif" font-size="24" font-weight="600">
      Citation traceability for high-stakes documents
    </text>
    <text x="94" y="270" fill="#94A3B8" font-family="Inter, Segoe UI, Arial, sans-serif" font-size="18">
      Structure + metadata + hybrid retrieval + source-grounded citations
    </text>
  </g>

  <rect x="92" y="318" width="232" height="42" rx="21" fill="url(#accent)" opacity="0.95"/>
  <text x="121" y="345" fill="#070A12" font-family="Inter, Segoe UI, Arial, sans-serif" font-size="15" font-weight="800">
    Answers with proof
  </text>

  <rect x="344" y="318" width="250" height="42" rx="21" fill="#111827" stroke="#334155"/>
  <text x="375" y="345" fill="#E2E8F0" font-family="Inter, Segoe UI, Arial, sans-serif" font-size="15" font-weight="700">
    Not another PDF chatbot
  </text>
</svg>
